PathFileType	4	(X/Y/Z)	/tmp/tmpfnw413rt//results/MarkerData/Run_5.trc
DataRate	CameraRate	NumFrames	NumMarkers	Units	OrigDataRate	OrigDataStartFrame	OrigNumFrames
100	100	9	45	m	100	182	364
Frame#	Time	C7			CLAV			LACR			LASI			LCAL			LFAradius			LFAsuperior			LFAulna			LLEL			LMEL			LMT5			LPSH			LPSI			LTB1			LTB2			LTB3			LTH1			LTH2			LTH3			LTOE			LUA1			LUA2			LUA3			RACR			RASI			RCAL			RFAradius			RFAsuperior			RFAulna			RLEL			RLMAL			RMEL			RMMAL			RMT5			RPSI			RTB1			RTB2			RTB3			RTH1			RTH2			RTH3			RTOE			RUA1			RUA2			RUA3		
		X1	Y1	Z1	X2	Y2	Z2	X3	Y3	Z3	X4	Y4	Z4	X5	Y5	Z5	X6	Y6	Z6	X7	Y7	Z7	X8	Y8	Z8	X9	Y9	Z9	X10	Y10	Z10	X11	Y11	Z11	X12	Y12	Z12	X13	Y13	Z13	X14	Y14	Z14	X15	Y15	Z15	X16	Y16	Z16	X17	Y17	Z17	X18	Y18	Z18	X19	Y19	Z19	X20	Y20	Z20	X21	Y21	Z21	X22	Y22	Z22	X23	Y23	Z23	X24	Y24	Z24	X25	Y25	Z25	X26	Y26	Z26	X27	Y27	Z27	X28	Y28	Z28	X29	Y29	Z29	X30	Y30	Z30	X31	Y31	Z31	X32	Y32	Z32	X33	Y33	Z33	X34	Y34	Z34	X35	Y35	Z35	X36	Y36	Z36	X37	Y37	Z37	X38	Y38	Z38	X39	Y39	Z39	X40	Y40	Z40	X41	Y41	Z41	X42	Y42	Z42	X43	Y43	Z43	X44	Y44	Z44	X45	Y45	Z45

183	1.9	0.876678	1.55601	-0.352741	0.987089	1.45961	-0.348449	0.879215	1.52985	-0.515011	0.913376	1.04104	-0.455151	0.919439	0.0903891	-0.326244	0.879155	1.20107	-0.575448	0.702326	1.19158	-0.585926	0.861724	1.13704	-0.592122	0.637999	1.26584	-0.596435	0.644664	1.25273	-0.50785	1.08153	0.0516266	-0.412462	0.794087	1.50371	-0.501327	0.761173	1.08399	-0.372151	1.03678	0.415024	-0.430742	0.958879	0.307642	-0.443332	1.02411	0.225555	-0.392893	0.852242	0.82523	-0.500857	0.961387	0.746757	-0.493065	0.944049	0.635839	-0.476936	1.14674	0.0720757	-0.346204	0.758153	1.43786	-0.557301	0.694733	1.37784	-0.512873	0.671108	1.3399	-0.572797	0.947536	1.52536	-0.204911	0.937341	1.0282	-0.224419	0.374406	0.662648	-0.347249	0.99956	1.1815	-0.181835	0.844634	1.18501	-0.0534719	0.990879	1.12157	-0.151628	0.805257	1.24911	-0.0229679	0.385472	0.618689	-0.26808	0.757806	1.2395	-0.0985789	0.391586	0.576345	-0.342607	0.29491	0.561573	-0.215959	0.770663	1.07567	-0.283277	0.652509	0.482157	-0.274653	0.605122	0.541667	-0.237581	0.478356	0.545695	-0.279139	0.806191	0.768214	-0.185938	0.868973	0.689362	-0.213018	0.787219	0.604197	-0.227079	0.280777	0.476543	-0.262313	0.889971	1.40014	-0.0999308	0.801248	1.36779	-0.10068	0.802585	1.31728	-0.0510917
184	1.91	0.876632	1.54696	-0.35466	0.987511	1.44976	-0.347436	0.882566	1.51988	-0.517272	0.908399	1.0331	-0.456697	0.870113	0.0891751	-0.319843	0.891717	1.18443	-0.577931	0.715531	1.1739	-0.594283	0.875212	1.12062	-0.596375	0.6509	1.2474	-0.606588	0.654873	1.23401	-0.518225	1.03209	0.0543245	-0.408664	0.79755	1.49092	-0.506531	0.75667	1.07759	-0.372149	1.02011	0.406216	-0.424226	0.932654	0.30615	-0.438486	0.989362	0.219444	-0.384186	0.847192	0.819114	-0.502414	0.95559	0.738043	-0.492684	0.93774	0.62849	-0.475723	1.09875	0.0688586	-0.342419	0.764676	1.42129	-0.564627	0.700645	1.36008	-0.521775	0.681076	1.3207	-0.582204	0.944466	1.51631	-0.204091	0.934515	1.01983	-0.223629	0.40836	0.663915	-0.342955	0.990645	1.16062	-0.172165	0.831502	1.17596	-0.0502452	0.979311	1.10267	-0.139562	0.793028	1.24262	-0.0226866	0.418724	0.617926	-0.26476	0.748946	1.23277	-0.099937	0.42428	0.577306	-0.340176	0.328268	0.560787	-0.213793	0.768832	1.06783	-0.285201	0.681395	0.47536	-0.272069	0.635616	0.534792	-0.234172	0.509541	0.542998	-0.276405	0.815941	0.757999	-0.185175	0.88377	0.681671	-0.20999	0.808395	0.592203	-0.22353	0.312384	0.477235	-0.262584	0.88259	1.39064	-0.0999277	0.793122	1.36001	-0.102966	0.792358	1.31037	-0.0525378
185	1.92	0.876544	1.53909	-0.356793	0.98766	1.44091	-0.346062	0.886747	1.51114	-0.519678	0.901853	1.02644	-0.457062	0.821601	0.09091	-0.315066	0.906072	1.16906	-0.580013	0.730852	1.15707	-0.602571	0.89073	1.10522	-0.599523	0.66641	1.22955	-0.616689	0.666789	1.21575	-0.528688	0.983572	0.0562859	-0.404545	0.801708	1.48039	-0.512294	0.750658	1.07245	-0.371098	1.00208	0.401182	-0.418452	0.90538	0.308598	-0.434522	0.95428	0.21776	-0.377997	0.841021	0.815317	-0.503795	0.94798	0.730931	-0.493761	0.929606	0.622941	-0.47402	1.05086	0.0679261	-0.338868	0.773031	1.40576	-0.571586	0.70748	1.34317	-0.530828	0.692515	1.30224	-0.591744	0.940956	1.50855	-0.203333	0.930532	1.01207	-0.222268	0.441404	0.661516	-0.337899	0.980145	1.14008	-0.16192	0.817439	1.16778	-0.0477005	0.966064	1.08432	-0.126792	0.780233	1.23683	-0.0235487	0.451913	0.613041	-0.261019	0.739259	1.22636	-0.102147	0.457818	0.574743	-0.33748	0.36232	0.553818	-0.211906	0.765561	1.06147	-0.286037	0.713043	0.469716	-0.270177	0.668187	0.52795	-0.230758	0.542524	0.537973	-0.273739	0.826581	0.750003	-0.184706	0.899378	0.676588	-0.206959	0.831718	0.582737	-0.220301	0.346366	0.471899	-0.263871	0.874582	1.3818	-0.100088	0.78417	1.35275	-0.105664	0.781201	1.30392	-0.0546896
186	1.93	0.876541	1.53344	-0.358603	0.987187	1.43399	-0.344234	0.891926	1.50405	-0.521896	0.894453	1.02084	-0.456096	0.774445	0.0934427	-0.312749	0.922457	1.15637	-0.580949	0.748715	1.142	-0.609994	0.90857	1.09219	-0.600698	0.684583	1.21311	-0.62642	0.680248	1.19887	-0.538752	0.93611	0.0566007	-0.401778	0.806695	1.47273	-0.51819	0.743663	1.06837	-0.368581	0.981717	0.397093	-0.414425	0.877979	0.311302	-0.432736	0.918783	0.217308	-0.37527	0.832405	0.812394	-0.50378	0.937397	0.725652	-0.49459	0.918204	0.618448	-0.472129	1.0037	0.0670198	-0.33637	0.783091	1.39267	-0.577229	0.715253	1.32804	-0.539785	0.705551	1.28564	-0.601052	0.937202	1.50261	-0.202572	0.925521	1.00568	-0.220482	0.471801	0.655623	-0.332256	0.968257	1.12105	-0.151388	0.802878	1.16131	-0.0460642	0.951011	1.06756	-0.114071	0.767488	1.23264	-0.0258239	0.483982	0.604605	-0.256939	0.729133	1.22121	-0.105404	0.491057	0.568934	-0.334539	0.396447	0.540991	-0.210051	0.760521	1.05691	-0.284775	0.747059	0.466173	-0.269333	0.702185	0.522311	-0.227856	0.576486	0.531356	-0.27128	0.838119	0.745436	-0.184081	0.916324	0.676085	-0.204471	0.85744	0.577873	-0.217538	0.382704	0.460633	-0.265474	0.866191	1.37506	-0.100441	0.774895	1.34709	-0.108976	0.769751	1.29887	-0.0576952
187	1.94	0.87651	1.53022	-0.359625	0.985984	1.42929	-0.342038	0.897741	1.49901	-0.523281	0.887752	1.01614	-0.455046	0.72761	0.0950836	-0.312431	0.940517	1.14815	-0.579652	0.769094	1.1299	-0.615518	0.928562	1.08341	-0.599005	0.704798	1.19919	-0.635272	0.694654	1.18465	-0.547793	0.88879	0.0560467	-0.401132	0.812294	1.46773	-0.523361	0.737331	1.06512	-0.365744	0.957859	0.390913	-0.41191	0.849736	0.31116	-0.432629	0.881673	0.21525	-0.374579	0.821132	0.808592	-0.50215	0.9238	0.720781	-0.494482	0.903015	0.613485	-0.470451	0.956591	0.0657261	-0.335483	0.794035	1.38303	-0.581124	0.723863	1.31564	-0.548459	0.720189	1.27197	-0.609675	0.933243	1.49848	-0.201709	0.920373	1.00098	-0.219	0.498762	0.646089	-0.326309	0.955236	1.10517	-0.141088	0.788071	1.15721	-0.045337	0.934292	1.05381	-0.102491	0.754948	1.23072	-0.0291337	0.514322	0.592988	-0.252706	0.718894	1.21837	-0.109469	0.523242	0.560118	-0.331491	0.430568	0.522864	-0.208133	0.754782	1.05414	-0.282269	0.782703	0.465112	-0.26938	0.736585	0.518377	-0.225766	0.610514	0.523719	-0.269104	0.850576	0.744675	-0.183003	0.934982	0.681345	-0.203118	0.885293	0.578894	-0.215181	0.421451	0.443988	-0.266894	0.857657	1.37122	-0.101015	0.765876	1.34395	-0.112927	0.758599	1.29611	-0.0614511
188	1.95	0.876103	1.52878	-0.359767	0.984245	1.4266	-0.339694	0.903333	1.49641	-0.523367	0.883209	1.01251	-0.455537	0.68037	0.095885	-0.312909	0.959145	1.14613	-0.575329	0.791155	1.12192	-0.618453	0.949919	1.08074	-0.593998	0.725813	1.18884	-0.642534	0.709291	1.17427	-0.555232	0.84103	0.0555408	-0.401956	0.817849	1.46494	-0.527093	0.733469	1.06291	-0.364526	0.929925	0.38203	-0.410303	0.818897	0.308022	-0.432732	0.842217	0.211293	-0.374157	0.808643	0.803743	-0.499864	0.908494	0.714594	-0.493758	0.884713	0.607211	-0.469117	0.909013	0.0645842	-0.335885	0.804786	1.37713	-0.583769	0.733109	1.30683	-0.556654	0.736036	1.26199	-0.617144	0.928926	1.4959	-0.200693	0.916258	0.998022	-0.218952	0.522696	0.632596	-0.320433	0.941454	1.09424	-0.131705	0.772989	1.15588	-0.0453934	0.916512	1.04448	-0.0932043	0.742224	1.2314	-0.0327191	0.54298	0.578327	-0.248604	0.708507	1.21845	-0.113785	0.554241	0.548413	-0.328487	0.465025	0.50033	-0.206256	0.75023	1.0531	-0.280687	0.81903	0.466461	-0.269672	0.770483	0.516014	-0.224411	0.643996	0.51532	-0.267255	0.863846	0.747435	-0.181547	0.954807	0.692056	-0.203114	0.914249	0.585653	-0.213148	0.462598	0.423036	-0.267869	0.849042	1.37016	-0.101739	0.757319	1.34369	-0.117173	0.747852	1.29609	-0.0655375
189	1.96	0.875083	1.52846	-0.359329	0.982302	1.42563	-0.337385	0.907892	1.49645	-0.522271	0.881274	1.01017	-0.45792	0.632934	0.0974919	-0.313086	0.976808	1.15125	-0.568011	0.813421	1.11877	-0.618808	0.971385	1.08527	-0.585972	0.746217	1.18256	-0.64764	0.72366	1.16822	-0.560758	0.792733	0.055413	-0.402932	0.822677	1.46416	-0.529333	0.732583	1.06217	-0.365816	0.898226	0.372424	-0.409413	0.784281	0.304318	-0.432127	0.800716	0.207339	-0.373439	0.797035	0.799442	-0.498242	0.893172	0.706743	-0.492881	0.864541	0.600333	-0.468048	0.860823	0.0638935	-0.336573	0.814665	1.37473	-0.586135	0.742777	1.30195	-0.564098	0.752221	1.25591	-0.623073	0.924085	1.49474	-0.199566	0.913837	0.997047	-0.220942	0.544798	0.614933	-0.314992	0.92741	1.08949	-0.123884	0.757549	1.15748	-0.0461201	0.898677	1.04052	-0.086982	0.728817	1.23456	-0.0359876	0.570577	0.560638	-0.244921	0.69759	1.22144	-0.117845	0.584433	0.533812	-0.325589	0.500335	0.474438	-0.204577	0.748039	1.05375	-0.28145	0.855148	0.470034	-0.269545	0.803458	0.514936	-0.223466	0.676855	0.506134	-0.265746	0.877446	0.753163	-0.18005	0.974297	0.706713	-0.204063	0.942774	0.596964	-0.211451	0.50596	0.399069	-0.268322	0.840196	1.37117	-0.102459	0.748856	1.34606	-0.121112	0.737086	1.29872	-0.069407
190	1.97	0.87361	1.52925	-0.35872	0.980397	1.42634	-0.335102	0.911171	1.49898	-0.520545	0.881373	1.00912	-0.460883	0.585836	0.10191	-0.31266	0.99215	1.16315	-0.558538	0.834423	1.12042	-0.617074	0.991615	1.09678	-0.575769	0.765002	1.18002	-0.650518	0.737539	1.1661	-0.564406	0.743878	0.05567	-0.403205	0.826541	1.46544	-0.53059	0.733478	1.06311	-0.368584	0.863654	0.36474	-0.409275	0.746249	0.302841	-0.431014	0.757948	0.205546	-0.372779	0.787478	0.797458	-0.49785	0.878529	0.698632	-0.491926	0.843339	0.594578	-0.467152	0.81167	0.063451	-0.33662	0.823569	1.37529	-0.588674	0.752638	1.30067	-0.570456	0.767727	1.25338	-0.627213	0.918696	1.4951	-0.198423	0.91293	0.998431	-0.224179	0.566403	0.59314	-0.31025	0.913602	1.09104	-0.118056	0.741971	1.16202	-0.0474824	0.881843	1.04198	-0.0838656	0.714662	1.2399	-0.0388715	0.598015	0.539981	-0.241833	0.685809	1.22683	-0.121523	0.614427	0.516319	-0.32283	0.537041	0.44611	-0.203113	0.747678	1.05598	-0.283865	0.890409	0.475659	-0.26891	0.835391	0.51504	-0.222658	0.709378	0.496044	-0.264501	0.890482	0.761261	-0.178844	0.991788	0.723626	-0.205203	0.969349	0.611491	-0.210199	0.551271	0.3732	-0.268295	0.830905	1.37375	-0.103068	0.739897	1.35055	-0.124324	0.725797	1.30356	-0.0727399
191	1.98	0.872092	1.53166	-0.358125	0.97858	1.42891	-0.332662	0.913472	1.50365	-0.518666	0.882743	1.00913	-0.462772	0.539369	0.110273	-0.312182	1.00443	1.18034	-0.548034	0.853309	1.12614	-0.613746	1.00952	1.11388	-0.564276	0.781841	1.18044	-0.651541	0.750768	1.16697	-0.566436	0.694492	0.056318	-0.402861	0.829666	1.46875	-0.531362	0.734533	1.06554	-0.371028	0.827216	0.360536	-0.409674	0.706285	0.304997	-0.4301	0.714566	0.206933	-0.372519	0.779654	0.798343	-0.498169	0.863898	0.692307	-0.49075	0.821173	0.591476	-0.466409	0.761012	0.0629491	-0.335789	0.831588	1.37821	-0.590891	0.762306	1.30208	-0.575389	0.781836	1.25374	-0.629532	0.912854	1.49721	-0.197335	0.912948	1.00227	-0.226809	0.588621	0.567449	-0.306381	0.900403	1.09789	-0.114374	0.726817	1.16933	-0.0495224	0.866723	1.04815	-0.0831781	0.700235	1.24714	-0.0417451	0.626164	0.51662	-0.239363	0.673302	1.23411	-0.125119	0.64484	0.496147	-0.320327	0.575721	0.416081	-0.201754	0.747599	1.05951	-0.285974	0.924362	0.482977	-0.268323	0.866037	0.516216	-0.221975	0.741862	0.485003	-0.263355	0.902059	0.771127	-0.178096	1.00635	0.741684	-0.205927	0.992889	0.628244	-0.209495	0.598473	0.34628	-0.267907	0.821102	1.37793	-0.10362	0.73024	1.35679	-0.12693	0.713916	1.31021	-0.0756662
